<svg id="hpLogo" class="hp-logo" width="28" height="28" viewBox="0 0 28 28" fill="none" xmlns="http://www.w3.org/2000/svg">
    <path class="color1 fill" style="fill:currentColor" d="M14 27.5C13.869 27.5 13.731 27.5 13.6 27.494L16.356 19.913H20.156C20.5068 19.8966 20.8458 19.7809 21.1334 19.5795C21.4211 19.378 21.6457 19.0991 21.781 18.775L24.775 10.556C24.9082 10.2819 24.9657 9.97729 24.9418 9.67354C24.9178 9.36979 24.8131 9.07795 24.6386 8.82819C24.4641 8.57842 24.226 8.3798 23.949 8.25284C23.672 8.12587 23.3662 8.07518 23.063 8.106H17.794L13.375 20.25L10.869 27.137C7.9573 26.4456 5.35787 24.8062 3.47926 22.4767C1.60065 20.1471 0.549365 17.2593 0.490638 14.2672C0.431911 11.2751 1.36907 8.34825 3.15482 5.94673C4.94057 3.54522 7.47368 1.80515 10.356 1L7.76902 8.106L3.46902 19.912H6.33102L9.98702 9.881H12.137L8.48102 19.913H11.344L14.75 10.55C14.8832 10.2759 14.9407 9.97129 14.9168 9.66754C14.8928 9.36378 14.7881 9.07195 14.6136 8.82218C14.4391 8.57242 14.201 8.3738 13.924 8.24683C13.647 8.11987 13.3412 8.06918 13.038 8.1H10.631L13.393 0.512C13.593 0.506 13.799 0.5 13.999 0.5C17.5794 0.5 21.0132 1.92232 23.545 4.45406C26.0767 6.9858 27.499 10.4196 27.499 14C27.499 17.5804 26.0767 21.0142 23.545 23.5459C21.0132 26.0777 17.5794 27.5 13.999 27.5H14ZM22.169 9.869H20.019L17.006 18.131H19.156L22.169 9.869Z" />
</svg>
